<?xml version="1.0" encoding="UTF-8" standalone="no"?>
<!-- Created with Inkscape (http://www.inkscape.org/) -->

<svg
   width="375"
   height="75"
   viewBox="0 0 75 15"
   version="1.1"
   id="svg1"
   inkscape:version="1.3.1 (9b9bdc1480, 2023-11-25, custom)"
   sodipodi:docname="baner.svg"
   xmlns:inkscape="http://www.inkscape.org/namespaces/inkscape"
   xmlns:sodipodi="http://sodipodi.sourceforge.net/DTD/sodipodi-0.dtd"
   xmlns="http://www.w3.org/2000/svg"
   xmlns:svg="http://www.w3.org/2000/svg">
  <sodipodi:namedview
     id="namedview1"
     pagecolor="#505050"
     bordercolor="#ffffff"
     borderopacity="1"
     inkscape:showpageshadow="0"
     inkscape:pageopacity="0"
     inkscape:pagecheckerboard="1"
     inkscape:deskcolor="#505050"
     inkscape:document-units="mm"
     inkscape:zoom="2"
     inkscape:cx="109"
     inkscape:cy="14.25"
     inkscape:window-width="1920"
     inkscape:window-height="1008"
     inkscape:window-x="0"
     inkscape:window-y="0"
     inkscape:window-maximized="1"
     inkscape:current-layer="layer1" />
  <defs
     id="defs1" />
  <g
     inkscape:label="Warstwa 1"
     inkscape:groupmode="layer"
     id="layer1"
     style="display:inline">
    <g
       id="g2"
       style="fill:#217821">
      <path
         style="display:inline;fill:#217821;fill-opacity:1;stroke:none;stroke-width:2"
         d="M -4.922,-0.02858113 7.9468345,22.260894 10.844625,20.587853 -2.196479,-2 Z"
         id="path1-2" />
      <path
         style="display:inline;fill:#217821;fill-opacity:1;stroke:none;stroke-width:2"
         d="M 2.4,-0.0285811 15.268834,22.260894 18.166624,20.587853 5.1255206,-2 Z"
         id="path1-6" />
      <path
         style="display:inline;fill:#217821;fill-opacity:1;stroke:none;stroke-width:2"
         d="M 10,-0.0285811 22.868834,22.260894 25.766624,20.587853 12.725521,-2 Z"
         id="path1-6-6" />
      <path
         style="display:inline;fill:#217821;fill-opacity:1;stroke:none;stroke-width:2"
         d="M 17.56,-0.0285811 30.428834,22.260894 33.326625,20.587853 20.285521,-2 Z"
         id="path1-2-1" />
      <path
         style="display:inline;fill:#217821;fill-opacity:1;stroke:none;stroke-width:2"
         d="M 24.882,-0.0285811 37.750834,22.260894 40.648624,20.587853 27.607521,-2 Z"
         id="path1-6-4" />
      <path
         style="display:inline;fill:#217821;fill-opacity:1;stroke:none;stroke-width:2"
         d="M 32.482,-0.0285811 45.350834,22.260894 48.248624,20.587853 35.207521,-2 Z"
         id="path1-6-6-7" />
      <path
         style="display:inline;fill:#217821;fill-opacity:1;stroke:none;stroke-width:2"
         d="M 40.059998,-0.0285811 52.928827,22.260894 55.826617,20.587853 42.785518,-2 Z"
         id="path1-2-10" />
      <path
         style="display:inline;fill:#217821;fill-opacity:1;stroke:none;stroke-width:2"
         d="M 47.381995,-0.0285811 60.250824,22.260894 63.148613,20.587853 50.107515,-2 Z"
         id="path1-6-3" />
      <path
         style="display:inline;fill:#217821;fill-opacity:1;stroke:none;stroke-width:2"
         d="M 54.981992,-0.0285811 67.850821,22.260894 70.748609,20.587853 57.707512,-2 Z"
         id="path1-6-6-2" />
      <path
         style="display:inline;fill:#217821;fill-opacity:1;stroke:none;stroke-width:2"
         d="M 62.541989,-0.0285811 75.410818,22.260894 78.308607,20.587853 65.267509,-2 Z"
         id="path1-2-1-1" />
      <path
         style="display:inline;fill:#217821;fill-opacity:1;stroke:none;stroke-width:2"
         d="M 69.863986,-0.0285811 82.732814,22.260894 85.630603,20.587853 72.589506,-2 Z"
         id="path1-6-4-5" />
      <path
         style="display:inline;fill:#217821;fill-opacity:1;stroke:none;stroke-width:2"
         d="M 77.463983,-0.0285811 90.332811,22.260894 93.2306,20.587853 80.189502,-2 Z"
         id="path1-6-6-7-4" />
    </g>
    <g
       id="g1"
       style="fill:#37c837">
      <path
         style="fill:#37c837;fill-opacity:1;stroke:none;stroke-width:2"
         d="M -8.682,-0.02858114 4.1868336,22.260894 7.0846236,20.587853 -5.9564794,-2 Z"
         id="path1" />
      <path
         style="display:inline;fill:#37c837;fill-opacity:1;stroke:none;stroke-width:2"
         d="M -1.162,-0.0285811 11.706834,22.260894 14.604624,20.587853 1.5635207,-2 Z"
         id="path1-7" />
      <path
         style="display:inline;fill:#37c837;fill-opacity:1;stroke:none;stroke-width:2"
         d="M 6.2,-0.0285811 19.068834,22.260894 21.966624,20.587853 8.925521,-2 Z"
         id="path1-61"
         inkscape:transform-center-x="-5.2415964" />
      <path
         style="display:inline;fill:#37c837;fill-opacity:1;stroke:none;stroke-width:2"
         d="M 13.8,-0.0285811 26.668834,22.260894 29.566624,20.587853 16.525521,-2 Z"
         id="path1-3" />
      <path
         style="display:inline;fill:#37c837;fill-opacity:1;stroke:none;stroke-width:2"
         d="M 21.32,-0.0285811 34.188834,22.260894 37.086624,20.587853 24.045521,-2 Z"
         id="path1-7-9" />
      <path
         style="display:inline;fill:#37c837;fill-opacity:1;stroke:none;stroke-width:2"
         d="M 28.682,-0.0285811 41.550834,22.260894 44.448624,20.587853 31.407521,-2 Z"
         id="path1-61-8"
         inkscape:transform-center-x="-5.2415964" />
      <path
         style="display:inline;fill:#37c837;fill-opacity:1;stroke:none;stroke-width:2"
         d="M 36.3,-0.0285811 49.168829,22.260894 52.066617,20.587853 39.02552,-2 Z"
         id="path1-36" />
      <path
         style="display:inline;fill:#37c837;fill-opacity:1;stroke:none;stroke-width:2"
         d="M 43.819997,-0.0285811 56.688825,22.260894 59.586614,20.587853 46.545517,-2 Z"
         id="path1-7-6" />
      <path
         style="display:inline;fill:#37c837;fill-opacity:1;stroke:none;stroke-width:2"
         d="M 51.181994,-0.0285811 64.050822,22.260894 66.948611,20.587853 53.907514,-2 Z"
         id="path1-61-0"
         inkscape:transform-center-x="-5.2415964" />
      <path
         style="display:inline;fill:#37c837;fill-opacity:1;stroke:none;stroke-width:2"
         d="M 58.781991,-0.0285811 71.650819,22.260894 74.548608,20.587853 61.50751,-2 Z"
         id="path1-3-6" />
      <path
         style="display:inline;fill:#37c837;fill-opacity:1;stroke:none;stroke-width:2"
         d="M 66.301987,-0.0285811 79.170816,22.260894 82.068605,20.587853 69.027507,-2 Z"
         id="path1-7-9-5" />
      <path
         style="display:inline;fill:#37c837;fill-opacity:1;stroke:none;stroke-width:2"
         d="M 73.663984,-0.0285811 86.532813,22.260894 89.430602,20.587853 76.389504,-2 Z"
         id="path1-61-8-7"
         inkscape:transform-center-x="-5.2415964" />
    </g>
  </g>
</svg>
